<svg xmlns="http://www.w3.org/2000/svg" xmlns:xlink="http://www.w3.org/1999/xlink" version="1.1" width="256" height="256" viewBox="0 0 256 256" xml:space="preserve">
<g style="stroke: none; stroke-width: 0; stroke-dasharray: none; stroke-linecap: butt; stroke-linejoin: miter; stroke-miterlimit: 10; fill: none; fill-rule: nonzero; opacity: 1;" transform="translate(1.4065934065934016 1.4065934065934016) scale(2.81 2.81)">
	<path d="M 45 0 L 45 0 C 25.612 0 9.896 15.717 9.896 35.104 v 44.874 v 2.035 v 0.965 c 0 3.878 3.143 7.021 7.021 7.021 c 3.878 0 7.021 -3.143 7.021 -7.021 v -0.965 v -2.035 v -0.953 c 0 -3.878 3.143 -7.021 7.021 -7.021 h 0 c 3.878 0 7.021 3.143 7.021 7.021 v 0.953 v 2.035 v 0.965 C 37.979 86.857 41.122 90 45 90 s 7.021 -3.143 7.021 -7.021 v -0.965 v -2.035 v -0.953 c 0 -3.878 3.143 -7.021 7.021 -7.021 h 0 c 3.878 0 7.021 3.143 7.021 7.021 v 0.953 v 2.035 v 0.965 c 0 3.878 3.143 7.021 7.021 7.021 c 3.878 0 7.021 -3.143 7.021 -7.021 v -0.965 v -2.035 V 35.104 C 80.104 15.717 64.388 0 45 0 z" style="stroke: none; stroke-width: 1; stroke-dasharray: none; stroke-linecap: butt; stroke-linejoin: miter; stroke-miterlimit: 10; fill: rgb(75,102,234); fill-rule: nonzero; opacity: 1;" transform=" matrix(1 0 0 1 0 0) " stroke-linecap="round"/>
	<circle cx="30.683999999999997" cy="35.644" r="11.694" style="stroke: none; stroke-width: 1; stroke-dasharray: none; stroke-linecap: butt; stroke-linejoin: miter; stroke-miterlimit: 10; fill: rgb(255,255,255); fill-rule: nonzero; opacity: 1;" transform="  matrix(1 0 0 1 0 0) "/>
	<circle cx="35.504" cy="39.204" r="4.574" style="stroke: none; stroke-width: 1; stroke-dasharray: none; stroke-linecap: butt; stroke-linejoin: miter; stroke-miterlimit: 10; fill: rgb(61,66,76); fill-rule: nonzero; opacity: 1;" transform="  matrix(1 0 0 1 0 0) "/>
	<circle cx="59.314" cy="35.644" r="11.694" style="stroke: none; stroke-width: 1; stroke-dasharray: none; stroke-linecap: butt; stroke-linejoin: miter; stroke-miterlimit: 10; fill: rgb(255,255,255); fill-rule: nonzero; opacity: 1;" transform="  matrix(1 0 0 1 0 0) "/>
	<circle cx="64.144" cy="39.204" r="4.574" style="stroke: none; stroke-width: 1; stroke-dasharray: none; stroke-linecap: butt; stroke-linejoin: miter; stroke-miterlimit: 10; fill: rgb(61,66,76); fill-rule: nonzero; opacity: 1;" transform="  matrix(1 0 0 1 0 0) "/>
</g>
</svg>